#!OML:ASF H:\GeneralSubjects\Female5\Project 1\Capture day 1\Session 1\Female5.ASF
:FULLY-SPECIFIED
:DEGREES
160
root 4.1759 13.8887 4.58176 -165.797 -29.1047 181.002
lowerback 21.6278 9.127 -2.14377
upperback -8.28178 9.4014 -9.62576
thorax -20.3556 3.15594 -13.5015
lowerneck -14.4684 5.45373 8.08638
upperneck 18.4077 5.6533 -1.21399
head 8.39871 3.03705 -1.0849
rclavicle 1.55052e-014 4.77083e-015
rhumerus -6.48656 -2.33012 -45.2156
rradius 68.4347
rwrist -21.1486
rhand -43.9217 -13.8014
rfingers 7.12502
rthumb -16.7458 -43.0992
lclavicle 1.55052e-014 4.77083e-015
lhumerus -44.1904 40.1997 16.2022
lradius 79.1165
lwrist 12.5884
lhand -51.5253 61.4417
lfingers 7.12502
lthumb -24.0524 89.9544
rfemur -46.0945 -2.25362 26.4074
rtibia 56.8757
rfoot -31.8383 -11.2227
rtoes -3.68957
lfemur -39.3922 -19.8316 -14.9419
ltibia 66.9797
lfoot -37.192 -23.8912
ltoes -19.739
161
root 4.24621 13.9672 4.51881 -165.995 -30.9679 181.506
lowerback 20.7816 8.70073 -2.69853
upperback -8.38839 8.85142 -9.04113
thorax -20.2592 3.08037 -12.1787
lowerneck -14.3133 5.46613 8.5024
upperneck 18.8762 5.52487 -1.04933
head 8.53566 3.0201 -1.11281
rclavicle -1.78906e-013 1.03368e-013
rhumerus -9.74074 -3.2335 -44.3003
rradius 69.531
rwrist -21.2783
rhand -43.865 -14.1505
rfingers 7.12502
rthumb -16.6913 -43.4529
lclavicle -1.78906e-013 1.03368e-013
lhumerus -41.31 41.4433 18.1541
lradius 80.4672
lwrist 12.1084
lhand -50.8604 56.8511
lfingers 7.12502
lthumb -23.4147 85.4466
rfemur -45.1318 -2.75205 26.5688
rtibia 56.1919
rfoot -30.6306 -10.8165
rtoes -7.30427
lfemur -39.64 -20.4564 -13.7072
ltibia 65.8922
lfoot -35.2659 -25.5486
ltoes -16.7197
162
root 4.32628 14.0616 4.44488 -166.315 -33.3256 182.335
lowerback 19.8116 8.13622 -3.13895
upperback -8.49732 8.20195 -8.31309
thorax -20.0783 2.97111 -10.7141
lowerneck -14.0467 5.48143 9.10939
upperneck 19.4578 5.39253 -1.0478
head 8.70299 2.99967 -1.22907
rclavicle 2.62396e-014 1.17681e-013
rhumerus -13.6878 -4.46906 -43.011
rradius 70.6158
rwrist -21.5798
rhand -43.9467 -14.5269
rfingers 7.12502
rthumb -16.7699 -43.8227
lclavicle 2.62396e-014 1.17681e-013
lhumerus -37.4553 41.8683 21.4733
lradius 81.9157
lwrist 11.5098
lhand -50.572 56.3045
lfingers 7.12502
lthumb -23.138 84.935
rfemur -44.0425 -2.73698 26.7874
rtibia 55.409
rfoot -29.3502 -9.99617
rtoes -9.72448
lfemur -40.2952 -21.044 -11.8763
ltibia 64.885
lfoot -33.9986 -25.1518
ltoes -17.3032
163
root 4.41006 14.1699 4.35488 -167.101 -36.1092 183.755
lowerback 18.8702 7.46586 -3.15642
upperback -8.52825 7.56949 -7.4776
thorax -19.7312 2.83856 -9.37837
lowerneck -14.0963 5.29613 9.28357
upperneck 20.0191 4.98454 -0.72484
head 8.88324 2.85353 -1.19523
rclavicle -3.73715e-014 -3.97569e-014
rhumerus -18.3186 -6.22968 -41.3097
rradius 71.771
rwrist -22.016
rhand -43.7372 -14.5875
rfingers 7.12502
rthumb -16.5682 -43.9002
lclavicle -3.73715e-014 -3.97569e-014
lhumerus -32.3212 41.6799 25.9594
lradius 82.955
lwrist 10.9409
lhand -50.6758 54.9694
lfingers 7.12502
lthumb -23.2376 83.5873
rfemur -42.5779 -2.42075 27.4573
rtibia 54.3168
rfoot -28.0137 -8.68989
rtoes -10.7099
lfemur -41.0246 -21.2727 -9.4562
ltibia 63.6816
lfoot -32.6171 -24.1015
ltoes -18.9613
164
root 4.49954 14.2989 4.24609 -168.807 -39.1316 186.063
lowerback 18.1619 6.68765 -2.8533
upperback -8.46879 6.93064 -6.35254
thorax -19.379 2.68792 -7.93595
lowerneck -13.83 5.21516 10.122
upperneck 20.2851 4.74611 -1.0253
head 8.95021 2.77221 -1.46723
rclavicle 3.33958e-014 3.18055e-015
rhumerus -23.3711 -7.96346 -39.1514
rradius 73.1255
rwrist -22.7279
rhand -43.6761 -15.0244
rfingers 7.12502
rthumb -16.5094 -44.342
lclavicle 3.33958e-014 3.18055e-015
lhumerus -26.5974 41.1363 30.8758
lradius 83.5988
lwrist 10.0403
lhand -50.2921 53.7399
lfingers 7.12502
lthumb -22.8695 82.4039
rfemur -40.4147 -1.74621 28.8824
rtibia 52.6994
rfoot -26.6336 -7.90846
rtoes -12.608
lfemur -41.4009 -20.7287 -6.49545
ltibia 62.0981
lfoot -30.2673 -23.8129
ltoes -19.5773
165
root 4.60194 14.4441 4.12251 -171.136 -42.2678 189.039
lowerback 17.5963 5.78746 -2.84535
upperback -8.17723 6.1234 -4.71999
thorax -19.402 2.45851 -6.05474
lowerneck -13.9806 5.23538 10.5534
upperneck 21.1447 4.58784 -0.970822
head 9.28336 2.74135 -1.5337
rclavicle -6.67916e-014 4.77083e-014
rhumerus -28.3315 -9.36419 -36.5607
rradius 74.5346
rwrist -23.8407
rhand -43.7338 -15.0669
rfingers 7.12502
rthumb -16.565 -44.3799
lclavicle -6.67916e-014 4.77083e-014
lhumerus -21.2606 40.234 35.5909
lradius 84.1077
lwrist 9.07219
lhand -49.9106 54.0997
lfingers 7.12502
lthumb -22.5033 82.8084
rfemur -38.1104 -0.749865 30.8473
rtibia 50.8883
rfoot -25.5087 -7.68637
rtoes -14.8589
lfemur -41.7465 -19.2449 -3.18056
ltibia 60.1924
lfoot -27.6582 -23.2045
ltoes -20.8823
166
root 4.71099 14.5938 3.98451 -173.888 -45.4716 192.566
lowerback 16.87 4.7566 -3.01628
upperback -8.14555 5.05007 -3.10003
thorax -19.1194 2.21519 -3.60123
lowerneck -13.7358 5.27473 11.1387
upperneck 21.6433 4.51021 -1.07124
head 9.43284 2.74044 -1.67783
rclavicle 1.12313e-013 6.20208e-014
rhumerus -32.9861 -10.4174 -33.6398
rradius 75.7705
rwrist -25.0969
rhand -43.6774 -14.6967
rfingers 7.12502
rthumb -16.5106 -44.0142
lclavicle 1.12313e-013 6.20208e-014
lhumerus -16.6113 38.7454 39.8009
lradius 84.5533
lwrist 8.46361
lhand -49.8264 53.7362
lfingers 7.12502
lthumb -22.4225 82.4547
rfemur -35.9376 0.188381 33.1524
rtibia 48.7849
rfoot -24.2622 -7.93554
rtoes -18.8023
lfemur -42.2722 -17.0423 0.310902
ltibia 57.9069
lfoot -24.7003 -21.8482
ltoes -21.8265
167
root 4.80465 14.7463 3.83419 -177.645 -48.5782 196.86
lowerback 16.3496 3.6625 -3.10852
upperback -8.01184 3.902 -1.32539
thorax -18.7689 1.92308 -1.04084
lowerneck -12.9478 5.18602 11.4517
upperneck 21.6281 4.35036 -0.935567
head 9.28159 2.69467 -1.71884
rclavicle 1.0138e-014 -3.81667e-014
rhumerus -37.23 -11.0762 -30.4508
rradius 76.718
rwrist -26.1598
rhand -44.0223 -14.519
rfingers 7.12502
rthumb -16.8427 -43.8086
lclavicle 1.0138e-014 -3.81667e-014
lhumerus -12.3996 36.8085 43.573
lradius 84.8186
lwrist 8.04108
lhand -49.3377 52.4058
lfingers 7.12502
lthumb -21.9533 81.1802
rfemur -33.2739 0.694595 35.7297
rtibia 46.055
rfoot -22.5939 -8.38477
rtoes -24.5129
lfemur -42.3081 -14.4907 3.69221
ltibia 55.1301
lfoot -21.7518 -19.9044
ltoes -22.8062
168
root 4.88211 14.9012 3.6802 -182.566 -51.5026 202.056
lowerback 16.1027 2.52643 -3.04117
upperback -7.76316 2.71203 0.573615
thorax -18.3653 1.57768 1.5459
lowerneck -12.6815 5.41936 12.5606
upperneck 22.1619 4.59066 -1.68869
head 9.49187 2.82081 -2.13388
rclavicle 3.83654e-014 -4.29375e-014
rhumerus -40.8957 -11.5996 -27.0479
rradius 77.1988
rwrist -26.9584
rhand -44.2694 -13.7936
rfingers 7.12502
rthumb -17.0805 -43.0627
lclavicle 3.83654e-014 -4.29375e-014
lhumerus -8.30036 34.7071 47.0702
lradius 84.8868
lwrist 7.63068
lhand -48.5411 52.2097
lfingers 7.12502
lthumb -21.1882 81.0718
rfemur -30.1142 0.452688 38.5408
rtibia 42.7065
rfoot -21.2222 -7.95932
rtoes -27.6527
lfemur -42.0409 -11.7319 6.98368
ltibia 52.2994
lfoot -19.1577 -17.816
ltoes -23.9777
169
root 4.94843 15.0511 3.52791 -188.328 -54.173 207.984
lowerback 16.0099 1.32064 -3.04048
upperback -7.51136 1.3643 2.51715
thorax -17.9683 1.14378 4.25608
lowerneck -12.4166 5.68622 13.3688
upperneck 22.6683 4.8814 -2.14652
head 9.68725 2.97716 -2.39345
rclavicle -3.29983e-014 4.45278e-014
rhumerus -43.7447 -11.969 -23.6169
rradius 77.1797
rwrist -27.5409
rhand -44.4867 -13.3016
rfingers 7.12502
rthumb -17.2897 -42.5526
lclavicle -3.29983e-014 4.45278e-014
lhumerus -4.70829 32.4886 49.9115
lradius 84.7562
lwrist 7.36229
lhand -47.6469 51.7792
lfingers 7.12502
lthumb -20.3291 80.7352
rfemur -26.8459 -0.890432 41.4212
rtibia 38.8995
rfoot -20.1088 -7.02944
rtoes -30.018
lfemur -41.8172 -8.8447 10.0816
ltibia 49.5884
lfoot -16.9274 -15.688
ltoes -23.7436
